<svg width="583" height="519" viewBox="0 0 583 519" fill="none" xmlns="http://www.w3.org/2000/svg">
<path d="M162.5 13.0944C166.09 13.0944 169 10.1631 169 6.54718C169 2.93127 166.09 0 162.5 0C158.91 0 156 2.93127 156 6.54718C156 10.1631 158.91 13.0944 162.5 13.0944Z" fill="#E6E6E6"/>
<path d="M194.5 13.0944C198.09 13.0944 201 10.1631 201 6.54718C201 2.93127 198.09 0 194.5 0C190.91 0 188 2.93127 188 6.54718C188 10.1631 190.91 13.0944 194.5 13.0944Z" fill="#E6E6E6"/>
<path d="M226.5 13.0944C230.09 13.0944 233 10.1631 233 6.54718C233 2.93127 230.09 0 226.5 0C222.91 0 220 2.93127 220 6.54718C220 10.1631 222.91 13.0944 226.5 13.0944Z" fill="#E6E6E6"/>
<path d="M258.5 13.0944C262.09 13.0944 265 10.1631 265 6.54718C265 2.93127 262.09 0 258.5 0C254.91 0 252 2.93127 252 6.54718C252 10.1631 254.91 13.0944 258.5 13.0944Z" fill="#E6E6E6"/>
<path d="M290.5 13.0944C294.09 13.0944 297 10.1631 297 6.54718C297 2.93127 294.09 0 290.5 0C286.91 0 284 2.93127 284 6.54718C284 10.1631 286.91 13.0944 290.5 13.0944Z" fill="#E6E6E6"/>
<path d="M162.5 45.3263C166.09 45.3263 169 42.395 169 38.7791C169 35.1632 166.09 32.2319 162.5 32.2319C158.91 32.2319 156 35.1632 156 38.7791C156 42.395 158.91 45.3263 162.5 45.3263Z" fill="#E6E6E6"/>
<path d="M194.5 45.3263C198.09 45.3263 201 42.395 201 38.7791C201 35.1632 198.09 32.2319 194.5 32.2319C190.91 32.2319 188 35.1632 188 38.7791C188 42.395 190.91 45.3263 194.5 45.3263Z" fill="#E6E6E6"/>
<path d="M226.5 45.3263C230.09 45.3263 233 42.395 233 38.7791C233 35.1632 230.09 32.2319 226.5 32.2319C222.91 32.2319 220 35.1632 220 38.7791C220 42.395 222.91 45.3263 226.5 45.3263Z" fill="#E6E6E6"/>
<path d="M258.5 45.3263C262.09 45.3263 265 42.395 265 38.7791C265 35.1632 262.09 32.2319 258.5 32.2319C254.91 32.2319 252 35.1632 252 38.7791C252 42.395 254.91 45.3263 258.5 45.3263Z" fill="#FFA900"/>
<path d="M290.5 45.3263C294.09 45.3263 297 42.395 297 38.7791C297 35.1632 294.09 32.2319 290.5 32.2319C286.91 32.2319 284 35.1632 284 38.7791C284 42.395 286.91 45.3263 290.5 45.3263Z" fill="#E6E6E6"/>
<path d="M355 45.3263C358.314 45.3263 361 42.395 361 38.7791C361 35.1632 358.314 32.2319 355 32.2319C351.686 32.2319 349 35.1632 349 38.7791C349 42.395 351.686 45.3263 355 45.3263Z" fill="#E6E6E6"/>
<path d="M162.5 78.566C166.09 78.566 169 75.6348 169 72.0189C169 68.403 166.09 65.4717 162.5 65.4717C158.91 65.4717 156 68.403 156 72.0189C156 75.6348 158.91 78.566 162.5 78.566Z" fill="#E6E6E6"/>
<path d="M194.5 78.566C198.09 78.566 201 75.6348 201 72.0189C201 68.403 198.09 65.4717 194.5 65.4717C190.91 65.4717 188 68.403 188 72.0189C188 75.6348 190.91 78.566 194.5 78.566Z" fill="#E6E6E6"/>
<path d="M226.5 78.566C230.09 78.566 233 75.6348 233 72.0189C233 68.403 230.09 65.4717 226.5 65.4717C222.91 65.4717 220 68.403 220 72.0189C220 75.6348 222.91 78.566 226.5 78.566Z" fill="#E6E6E6"/>
<path d="M258.5 78.566C262.09 78.566 265 75.6348 265 72.0189C265 68.403 262.09 65.4717 258.5 65.4717C254.91 65.4717 252 68.403 252 72.0189C252 75.6348 254.91 78.566 258.5 78.566Z" fill="#E6E6E6"/>
<path d="M290.5 78.566C294.09 78.566 297 75.6348 297 72.0189C297 68.403 294.09 65.4717 290.5 65.4717C286.91 65.4717 284 68.403 284 72.0189C284 75.6348 286.91 78.566 290.5 78.566Z" fill="#E6E6E6"/>
<path d="M162.5 110.798C166.09 110.798 169 107.867 169 104.251C169 100.635 166.09 97.7036 162.5 97.7036C158.91 97.7036 156 100.635 156 104.251C156 107.867 158.91 110.798 162.5 110.798Z" fill="#E6E6E6"/>
<path d="M194.5 110.798C198.09 110.798 201 107.867 201 104.251C201 100.635 198.09 97.7036 194.5 97.7036C190.91 97.7036 188 100.635 188 104.251C188 107.867 190.91 110.798 194.5 110.798Z" fill="#E6E6E6"/>
<path d="M226.5 110.798C230.09 110.798 233 107.867 233 104.251C233 100.635 230.09 97.7036 226.5 97.7036C222.91 97.7036 220 100.635 220 104.251C220 107.867 222.91 110.798 226.5 110.798Z" fill="#E6E6E6"/>
<path d="M258.5 110.798C262.09 110.798 265 107.867 265 104.251C265 100.635 262.09 97.7036 258.5 97.7036C254.91 97.7036 252 100.635 252 104.251C252 107.867 254.91 110.798 258.5 110.798Z" fill="#E6E6E6"/>
<path d="M290.5 110.798C294.09 110.798 297 107.867 297 104.251C297 100.635 294.09 97.7036 290.5 97.7036C286.91 97.7036 284 100.635 284 104.251C284 107.867 286.91 110.798 290.5 110.798Z" fill="#E6E6E6"/>
<path d="M322.5 110.798C326.09 110.798 329 107.867 329 104.251C329 100.635 326.09 97.7036 322.5 97.7036C318.91 97.7036 316 100.635 316 104.251C316 107.867 318.91 110.798 322.5 110.798Z" fill="#E6E6E6"/>
<path d="M355 110.798C358.314 110.798 361 107.867 361 104.251C361 100.635 358.314 97.7036 355 97.7036C351.686 97.7036 349 100.635 349 104.251C349 107.867 351.686 110.798 355 110.798Z" fill="#E6E6E6"/>
<path d="M387 110.798C390.314 110.798 393 107.867 393 104.251C393 100.635 390.314 97.7036 387 97.7036C383.686 97.7036 381 100.635 381 104.251C381 107.867 383.686 110.798 387 110.798Z" fill="#E6E6E6"/>
<path d="M419 110.798C422.314 110.798 425 107.867 425 104.251C425 100.635 422.314 97.7036 419 97.7036C415.686 97.7036 413 100.635 413 104.251C413 107.867 415.686 110.798 419 110.798Z" fill="#E6E6E6"/>
<path d="M451 110.798C454.314 110.798 457 107.867 457 104.251C457 100.635 454.314 97.7036 451 97.7036C447.686 97.7036 445 100.635 445 104.251C445 107.867 447.686 110.798 451 110.798Z" fill="#E6E6E6"/>
<path d="M290.5 144.038C294.09 144.038 297 141.106 297 137.491C297 133.875 294.09 130.943 290.5 130.943C286.91 130.943 284 133.875 284 137.491C284 141.106 286.91 144.038 290.5 144.038Z" fill="#E6E6E6"/>
<path d="M322.5 144.038C326.09 144.038 329 141.106 329 137.491C329 133.875 326.09 130.943 322.5 130.943C318.91 130.943 316 133.875 316 137.491C316 141.106 318.91 144.038 322.5 144.038Z" fill="#FFA900"/>
<path d="M355 144.038C358.314 144.038 361 141.106 361 137.491C361 133.875 358.314 130.943 355 130.943C351.686 130.943 349 133.875 349 137.491C349 141.106 351.686 144.038 355 144.038Z" fill="#E6E6E6"/>
<path d="M387 144.038C390.314 144.038 393 141.106 393 137.491C393 133.875 390.314 130.943 387 130.943C383.686 130.943 381 133.875 381 137.491C381 141.106 383.686 144.038 387 144.038Z" fill="#E6E6E6"/>
<path d="M419 144.038C422.314 144.038 425 141.106 425 137.491C425 133.875 422.314 130.943 419 130.943C415.686 130.943 413 133.875 413 137.491C413 141.106 415.686 144.038 419 144.038Z" fill="#E6E6E6"/>
<path d="M451 144.038C454.314 144.038 457 141.106 457 137.491C457 133.875 454.314 130.943 451 130.943C447.686 130.943 445 133.875 445 137.491C445 141.106 447.686 144.038 451 144.038Z" fill="#E6E6E6"/>
<path d="M290.5 176.27C294.09 176.27 297 173.339 297 169.723C297 166.107 294.09 163.176 290.5 163.176C286.91 163.176 284 166.107 284 169.723C284 173.339 286.91 176.27 290.5 176.27Z" fill="#E6E6E6"/>
<path d="M322.5 176.27C326.09 176.27 329 173.339 329 169.723C329 166.107 326.09 163.176 322.5 163.176C318.91 163.176 316 166.107 316 169.723C316 173.339 318.91 176.27 322.5 176.27Z" fill="#E6E6E6"/>
<path d="M355 176.27C358.314 176.27 361 173.339 361 169.723C361 166.107 358.314 163.176 355 163.176C351.686 163.176 349 166.107 349 169.723C349 173.339 351.686 176.27 355 176.27Z" fill="#E6E6E6"/>
<path d="M387 176.27C390.314 176.27 393 173.339 393 169.723C393 166.107 390.314 163.176 387 163.176C383.686 163.176 381 166.107 381 169.723C381 173.339 383.686 176.27 387 176.27Z" fill="#E6E6E6"/>
<path d="M419 176.27C422.314 176.27 425 173.339 425 169.723C425 166.107 422.314 163.176 419 163.176C415.686 163.176 413 166.107 413 169.723C413 173.339 415.686 176.27 419 176.27Z" fill="#FFA900"/>
<path d="M451 176.27C454.314 176.27 457 173.339 457 169.723C457 166.107 454.314 163.176 451 163.176C447.686 163.176 445 166.107 445 169.723C445 173.339 447.686 176.27 451 176.27Z" fill="#E6E6E6"/>
<path d="M290.5 209.509C294.09 209.509 297 206.578 297 202.962C297 199.346 294.09 196.415 290.5 196.415C286.91 196.415 284 199.346 284 202.962C284 206.578 286.91 209.509 290.5 209.509Z" fill="#E6E6E6"/>
<path d="M322.5 209.509C326.09 209.509 329 206.578 329 202.962C329 199.346 326.09 196.415 322.5 196.415C318.91 196.415 316 199.346 316 202.962C316 206.578 318.91 209.509 322.5 209.509Z" fill="#E6E6E6"/>
<path d="M355 209.509C358.314 209.509 361 206.578 361 202.962C361 199.346 358.314 196.415 355 196.415C351.686 196.415 349 199.346 349 202.962C349 206.578 351.686 209.509 355 209.509Z" fill="#E6E6E6"/>
<path d="M387 209.509C390.314 209.509 393 206.578 393 202.962C393 199.346 390.314 196.415 387 196.415C383.686 196.415 381 199.346 381 202.962C381 206.578 383.686 209.509 387 209.509Z" fill="#E6E6E6"/>
<path d="M419 209.509C422.314 209.509 425 206.578 425 202.962C425 199.346 422.314 196.415 419 196.415C415.686 196.415 413 199.346 413 202.962C413 206.578 415.686 209.509 419 209.509Z" fill="#E6E6E6"/>
<path d="M451 209.509C454.314 209.509 457 206.578 457 202.962C457 199.346 454.314 196.415 451 196.415C447.686 196.415 445 199.346 445 202.962C445 206.578 447.686 209.509 451 209.509Z" fill="#E6E6E6"/>
<path d="M162.5 241.742C166.09 241.742 169 238.811 169 235.195C169 231.579 166.09 228.647 162.5 228.647C158.91 228.647 156 231.579 156 235.195C156 238.811 158.91 241.742 162.5 241.742Z" fill="#E6E6E6"/>
<path d="M194.5 241.742C198.09 241.742 201 238.811 201 235.195C201 231.579 198.09 228.647 194.5 228.647C190.91 228.647 188 231.579 188 235.195C188 238.811 190.91 241.742 194.5 241.742Z" fill="#E6E6E6"/>
<path d="M226.5 241.742C230.09 241.742 233 238.811 233 235.195C233 231.579 230.09 228.647 226.5 228.647C222.91 228.647 220 231.579 220 235.195C220 238.811 222.91 241.742 226.5 241.742Z" fill="#E6E6E6"/>
<path d="M258.5 241.742C262.09 241.742 265 238.811 265 235.195C265 231.579 262.09 228.647 258.5 228.647C254.91 228.647 252 231.579 252 235.195C252 238.811 254.91 241.742 258.5 241.742Z" fill="#E6E6E6"/>
<path d="M290.5 241.742C294.09 241.742 297 238.811 297 235.195C297 231.579 294.09 228.647 290.5 228.647C286.91 228.647 284 231.579 284 235.195C284 238.811 286.91 241.742 290.5 241.742Z" fill="#E6E6E6"/>
<path d="M322.5 241.742C326.09 241.742 329 238.811 329 235.195C329 231.579 326.09 228.647 322.5 228.647C318.91 228.647 316 231.579 316 235.195C316 238.811 318.91 241.742 322.5 241.742Z" fill="#E6E6E6"/>
<path d="M355 241.742C358.314 241.742 361 238.811 361 235.195C361 231.579 358.314 228.647 355 228.647C351.686 228.647 349 231.579 349 235.195C349 238.811 351.686 241.742 355 241.742Z" fill="#E6E6E6"/>
<path d="M387 241.742C390.314 241.742 393 238.811 393 235.195C393 231.579 390.314 228.647 387 228.647C383.686 228.647 381 231.579 381 235.195C381 238.811 383.686 241.742 387 241.742Z" fill="#E6E6E6"/>
<path d="M419 241.742C422.314 241.742 425 238.811 425 235.195C425 231.579 422.314 228.647 419 228.647C415.686 228.647 413 231.579 413 235.195C413 238.811 415.686 241.742 419 241.742Z" fill="#E6E6E6"/>
<path d="M451 241.742C454.314 241.742 457 238.811 457 235.195C457 231.579 454.314 228.647 451 228.647C447.686 228.647 445 231.579 445 235.195C445 238.811 447.686 241.742 451 241.742Z" fill="#E6E6E6"/>
<path d="M162.5 273.974C166.09 273.974 169 271.269 169 267.931C169 264.593 166.09 261.887 162.5 261.887C158.91 261.887 156 264.593 156 267.931C156 271.269 158.91 273.974 162.5 273.974Z" fill="#E6E6E6"/>
<path d="M194.5 273.974C198.09 273.974 201 271.269 201 267.931C201 264.593 198.09 261.887 194.5 261.887C190.91 261.887 188 264.593 188 267.931C188 271.269 190.91 273.974 194.5 273.974Z" fill="#E6E6E6"/>
<path d="M162.5 307.213C166.09 307.213 169 304.282 169 300.666C169 297.05 166.09 294.119 162.5 294.119C158.91 294.119 156 297.05 156 300.666C156 304.282 158.91 307.213 162.5 307.213Z" fill="#E6E6E6"/>
<path d="M194.5 307.213C198.09 307.213 201 304.282 201 300.666C201 297.05 198.09 294.119 194.5 294.119C190.91 294.119 188 297.05 188 300.666C188 304.282 190.91 307.213 194.5 307.213Z" fill="#E6E6E6"/>
<path d="M258.5 307.213C262.09 307.213 265 304.282 265 300.666C265 297.05 262.09 294.119 258.5 294.119C254.91 294.119 252 297.05 252 300.666C252 304.282 254.91 307.213 258.5 307.213Z" fill="#E6E6E6"/>
<path d="M578.357 75.5346H327.643C325.08 75.5346 323 73.4243 323 70.8242V7.73197C323 5.13178 325.08 3.02148 327.643 3.02148H578.357C580.92 3.02148 583 5.13178 583 7.73197V70.8336C583 73.4338 580.92 75.5441 578.357 75.5441V75.5346ZM327.643 4.90568C326.101 4.90568 324.857 6.16809 324.857 7.73197V70.8336C324.857 72.3975 326.101 73.6599 327.643 73.6599H578.357C579.899 73.6599 581.143 72.3975 581.143 70.8336V7.73197C581.143 6.16809 579.899 4.90568 578.357 4.90568H327.643Z" fill="#E6E6E6"/>
<path d="M359.5 58.4208C370.27 58.4208 379 49.6269 379 38.7792C379 27.9315 370.27 19.1377 359.5 19.1377C348.73 19.1377 340 27.9315 340 38.7792C340 49.6269 348.73 58.4208 359.5 58.4208Z" fill="#FFA900"/>
<path d="M405.255 26.189C403.46 26.189 402 27.5444 402 29.2107C402 30.877 403.46 32.2325 405.255 32.2325H491.745C493.54 32.2325 495 30.877 495 29.2107C495 27.5444 493.54 26.189 491.745 26.189H405.255Z" fill="#E6E6E6"/>
<path d="M405.256 45.3267C403.46 45.3267 402 46.9081 402 48.8521C402 50.7961 403.46 52.3775 405.256 52.3775H558.744C560.54 52.3775 562 50.7961 562 48.8521C562 46.9081 560.54 45.3267 558.744 45.3267H405.256Z" fill="#E6E6E6"/>
<path d="M255.357 202.459H4.64286C2.08 202.459 0 200.378 0 197.814V135.588C0 133.024 2.08 130.943 4.64286 130.943H255.357C257.92 130.943 260 133.024 260 135.588V197.814C260 200.378 257.92 202.459 255.357 202.459ZM4.64286 132.811C3.10143 132.811 1.85714 134.056 1.85714 135.598V197.823C1.85714 199.365 3.10143 200.61 4.64286 200.61H255.357C256.899 200.61 258.143 199.365 258.143 197.823V135.598C258.143 134.056 256.899 132.811 255.357 132.811H4.64286Z" fill="#E6E6E6"/>
<path d="M37.5 186.343C48.2696 186.343 57 177.549 57 166.701C57 155.853 48.2696 147.06 37.5 147.06C26.7304 147.06 18 155.853 18 166.701C18 177.549 26.7304 186.343 37.5 186.343Z" fill="#FFA900"/>
<path d="M82.2644 153.103C80.4643 153.103 79 154.684 79 156.628C79 158.572 80.4643 160.154 82.2644 160.154H172.736C174.536 160.154 176 158.572 176 156.628C176 154.684 174.536 153.103 172.736 153.103H82.2644Z" fill="#E6E6E6"/>
<path d="M82.2558 173.248C80.4605 173.248 79 174.604 79 176.27C79 177.936 80.4605 179.292 82.2558 179.292H235.744C237.54 179.292 239 177.936 239 176.27C239 174.604 237.54 173.248 235.744 173.248H82.2558Z" fill="#E6E6E6"/>
<path d="M482.357 340.453H231.643C229.08 340.453 227 338.343 227 335.743V272.641C227 270.041 229.08 267.931 231.643 267.931H482.357C484.92 267.931 487 270.041 487 272.641V335.743C487 338.343 484.92 340.453 482.357 340.453ZM231.643 269.815C230.101 269.815 228.857 271.077 228.857 272.641V335.743C228.857 337.307 230.101 338.569 231.643 338.569H482.357C483.899 338.569 485.143 337.307 485.143 335.743V272.641C485.143 271.077 483.899 269.815 482.357 269.815H231.643Z" fill="#3F3D56"/>
<path d="M264 324.337C275.046 324.337 284 315.543 284 304.695C284 293.848 275.046 285.054 264 285.054C252.954 285.054 244 293.848 244 304.695C244 315.543 252.954 324.337 264 324.337Z" fill="#FFA900"/>
<path d="M309.245 291.098C307.456 291.098 306 292.679 306 294.623C306 296.567 307.456 298.148 309.245 298.148H391.755C393.544 298.148 395 296.567 395 294.623C395 292.679 393.544 291.098 391.755 291.098H309.245Z" fill="#E6E6E6"/>
<path d="M309.256 311.243C307.46 311.243 306 312.598 306 314.264C306 315.931 307.46 317.286 309.256 317.286H462.744C464.54 317.286 466 315.931 466 314.264C466 312.598 464.54 311.243 462.744 311.243H309.256Z" fill="#E6E6E6"/>
<path d="M395 352.464C383.995 385.492 339 350.464 339 350.464L350.999 225.365C369.003 211.358 388.001 223.365 388.001 223.365L395 352.464Z" fill="#E6E6E6"/>
<path d="M393 462.332L408 462.491L404.248 506.642L393 506.651V462.332Z" fill="#FFB8B8"/>
<path d="M390 503.629H411.984C419.716 503.629 425.991 509.743 426 517.287V517.731H390V503.629Z" fill="#2F2E41"/>
<path d="M351 462.332H335L340.156 506.642L351 506.651V462.332Z" fill="#FFB8B8"/>
<path d="M318 517.731V517.287C318 509.743 324.275 503.629 332.016 503.629H354V517.731H318Z" fill="#2F2E41"/>
<path d="M391.905 499.087L372.037 382.639L353.626 497.585L334.974 498.63L330 344.613L330.371 344.529C333.452 343.838 406.038 327.811 417.935 350.733L418 350.845L408.071 499.6L391.915 499.078L391.905 499.087Z" fill="#2F2E41"/>
<path d="M370.5 210.517C382.926 210.517 393 200.145 393 187.35C393 174.555 382.926 164.183 370.5 164.183C358.074 164.183 348 174.555 348 187.35C348 200.145 358.074 210.517 370.5 210.517Z" fill="#FFB8B8"/>
<path d="M389.949 361.437C387.284 360.687 385.367 357.597 383.905 351.687C383.655 350.666 360.05 248.934 380.008 230.502L384.608 217.567L390.903 221.82C393.134 221.838 415.915 222.428 417.859 237.198C419.766 251.659 424.959 348.568 419.738 354.6C419.534 354.871 419.22 355.03 418.877 355.04C413.591 355.04 411.99 349.102 411.61 347.21C410.352 347.734 406.612 349.673 400.456 355.901C396.642 359.76 393.652 361.605 391.19 361.605C390.764 361.605 390.348 361.549 389.94 361.437H389.949Z" fill="#2F2E41"/>
<path d="M339.973 355.901C333.693 349.673 329.878 347.744 328.594 347.21C328.207 349.102 326.573 355.04 321.181 355.04C320.841 355.03 320.52 354.871 320.303 354.6C314.987 348.568 320.275 251.659 322.22 237.198C324.203 222.419 347.451 221.838 349.717 221.819L356.139 217.567L360.832 230.502C381.19 248.934 357.111 350.675 356.856 351.687C355.364 357.587 353.41 360.687 350.69 361.437C350.275 361.549 349.84 361.605 349.415 361.605C346.894 361.605 343.844 359.76 339.963 355.901H339.973Z" fill="#2F2E41"/>
<path d="M389.209 200.57C399.759 193.027 402.158 178.413 394.568 167.928C390.628 162.481 384.522 158.983 377.809 158.315C375.699 158.101 373.421 158.138 371.675 156.942C370.115 155.884 369.285 154.047 367.856 152.822C366.017 151.411 363.673 150.827 361.386 151.198C359.126 151.588 356.932 152.302 354.888 153.323C349.799 155.578 344.393 158.352 342.087 163.381C340.08 167.742 340.967 173.114 343.805 176.993C346.793 180.825 351.134 183.377 355.961 184.128C360.751 184.843 365.643 184.397 370.228 182.848C373.253 181.901 376.24 180.612 379.415 180.51C386.305 180.278 392.075 185.65 392.308 192.498C392.42 195.82 391.188 199.039 388.891 201.452" fill="#2F2E41"/>
<path d="M265.158 337.431C270.632 337.3 274.976 332.694 274.848 327.127L288 304.59L277.833 295.126L263.973 317.327C258.518 317.859 254.523 322.782 255.046 328.312C255.542 333.571 259.951 337.543 265.149 337.421L265.158 337.431Z" fill="#FFB8B8"/>
<path d="M419.46 361.987C424.087 358.951 425.392 352.722 422.375 348.066L421.866 321.908L408.215 319.301L407.946 345.551C403.55 348.913 402.699 355.227 406.04 359.65C409.214 363.85 415.064 364.865 419.45 361.987H419.46Z" fill="#FFB8B8"/>
<path d="M269.157 301.431L269 301.178L269.157 300.925C289.023 268.602 330.735 228.231 331.151 227.828L331.281 227.697L336.432 227.641L342 241.694C340.27 245.076 293.537 311.128 287.368 315.513C286.378 316.206 285.139 316.45 283.964 316.159C282.938 315.916 281.957 315.494 281.079 314.913C275.382 311.343 269.453 301.89 269.157 301.422V301.431Z" fill="#2F2E41"/>
<path d="M405.946 337.904C404.831 337.522 403.928 336.682 403.448 335.591C400.481 328.595 413.189 240.166 413.733 236.407L413.834 235.698L418.128 238.45L418.174 238.637C418.303 239.206 430.808 295.537 427.417 332.97L427.389 333.24L427.15 333.352C426.634 333.595 416.211 338.436 409.272 338.436C408.139 338.464 407.015 338.286 405.946 337.913V337.904Z" fill="#2F2E41"/>
<path d="M492.071 518.738H244.929C244.418 518.738 244 518.285 244 517.731C244 517.177 244.418 516.724 244.929 516.724H492.071C492.582 516.724 493 517.177 493 517.731C493 518.285 492.582 518.738 492.071 518.738Z" fill="#3F3D56"/>
</svg>
